<svg version="1.1" x="0px" y="0px" width="570" height="226" xmlns="http://www.w3.org/2000/svg" xmlns:xlink="http://www.w3.org/1999/xlink" xmlns:a="http://ns.adobe.com/AdobeSVGViewerExtensions/3.0/" xml:space="preserve"><g transform="translate(65 20) scale(1.3746617441285 1.3746613768754) rotate(0 61.833393096925 67.29901123047)"><linearGradient id="SVGID_1" x1="0%" y1="0%" x2="100%" y2="0%" gradientTransform="rotate(90)"><stop offset="0%" stop-color="#f86d1e" stop-opacity="1"></stop><stop offset="100%" stop-color="#2e5ba2" stop-opacity="1"></stop></linearGradient><path d="M1.391,128.758c-0.481,0-0.942-0.022-1.391-0.06c1.71,3.79,5.185,5.9,10.516,5.9
	c14.007,0,37.134-14.564,59.337-35.924H53.092C33.533,116.715,13.688,128.758,1.391,128.758z M111.895,0
	c-4.026,0-8.81,1.207-14.105,3.43c13.204,1.538,11.626,19.52-2.601,43.887h15.92C127.14,19.905,128.275,0,111.895,0z" fill="url(#SVGID_1)"></path><linearGradient id="SVGID_2" x1="0%" y1="0%" x2="100%" y2="0%" gradientTransform="rotate(90)"><stop offset="0%" stop-color="#8ae003" stop-opacity="1"></stop><stop offset="100%" stop-color="#73b120" stop-opacity="1"></stop></linearGradient><path d="M7.745,98.675c-4.189,12.338-2.413,20.499,6.042,21.185c-2.06-4.561-1.138-11.961,2.544-21.185H7.745
	z M96.142,12.155c-12.564,0-34.296,14.632-53.881,35.161h9.564C67.521,30.81,84.533,17.813,97.79,12.252
	C97.265,12.19,96.72,12.155,96.142,12.155z" fill="url(#SVGID_2)"></path></g>
<g transform="translate(186.48277489036 160.0765027719)  scale(0.64212795957209 0.64212795957209)"><text dominant-baseline="auto" alignment-baseline="auto" font-family="Aquatico" font-size="32px" fill="#ff9900" letter-spacing="0" xml:space="preserve">WHERE DATA MEET SOLUTIONS</text></g>
<g transform="translate(20 129.86797848728)  scale(0.72392009561209 0.72392009561209)"><text dominant-baseline="auto" alignment-baseline="auto" font-family="Aquatico" font-size="62px" fill="#0c3b86" letter-spacing="0" xml:space="preserve">EARTH DATA SYSTEMS</text></g>
</svg>
